PathFileType	3	(X/Y/Z)	D:\minhoCalibration\240510\subject5_KPNP\preferred\preferred05.trc
DataRate	CameraRate	NumFrames	NumMarkers	Units	OrigDataRate	OrigDataStartFrame	OrigNumFrames
200.0	200.0	27	10	mm	200.0	183	131	
Frame#	Time	Left_Ankle_Outer1			Left_Ankle_Inner1			Left_Knee_Outer1			Left_Knee_Inner1			Left_Wrist1			Right_Wrist1			Right_Knee_Inner1			Right_Knee_Outer1			Right_Ankle_Inner1			Right_Ankle_Outer1			
		X1	Y1	Z1	X2	Y2	Z2	X3	Y3	Z3	X4	Y4	Z4	X5	Y5	Z5	X6	Y6	Z6	X7	Y7	Z7	X8	Y8	Z8	X9	Y9	Z9	X10	Y10	Z10	
183	0.905	-574.44891	92.605049	-537.31238	-607.2572	110.45242	-500.70648	-383.29037	532.19946	-518.18463	-440.3909	526.11072	-442.61996	-444.26779	1000.052	-707.8313	-636.2265	1141.3098	-471.4964	-600.09406	814.15436	-46.267616	-655.34149	895.03607	-45.871952	-832.35095	601.04938	-389.42892	-876.21606	688.82751	-389.8075
184	0.91	-576.83679	94.816467	-534.33765	-609.28149	112.18618	-496.45651	-381.69421	531.94348	-520.07257	-435.19312	526.19446	-442.26117	-452.6163	996.19775	-710.47925	-627.94177	1145.7247	-468.06766	-583.82971	827.61871	-37.779285	-636.14362	910.76697	-36.942188	-837.724	617.66779	-367.17038	-878.05627	707.06305	-367.48297
185	0.915	-580.0849	96.573181	-530.73938	-611.1275	114.22038	-491.36401	-380.4097	531.73608	-522.13928	-430.07608	526.21545	-442.129	-459.98795	993.44269	-712.99878	-620.68719	1149.9166	-464.3385	-567.43488	840.73901	-30.067568	-616.51581	925.60846	-29.701111	-842.8855	634.59521	-343.8342	-879.69641	725.52661	-344.71069
186	0.92	-583.01636	98.025787	-527.1521	-613.18341	116.05246	-486.44366	-379.63266	531.47119	-524.14642	-425.43011	526.28027	-442.17068	-461.11084	992.69916	-715.0354	-612.9516	1153.8666	-461.40649	-550.90393	853.55756	-23.356989	-596.09412	940.26099	-23.247292	-848.07104	651.59515	-320.01352	-881.15302	744.02734	-320.70154
187	0.925	-585.91913	99.250595	-523.70172	-614.21295	117.25652	-482.24771	-379.41974	531.09412	-526.22949	-421.33167	526.17584	-442.45319	-466.50827	989.92688	-717.20593	-605.13672	1157.3264	-459.20453	-534.2359	865.79175	-17.781811	-575.83514	954.15759	-18.126368	-852.66083	669.17322	-294.56656	-882.21588	762.63202	-295.94376
188	0.93	-588.79761	99.958763	-520.37469	-615.95221	118.64788	-477.47513	-379.79382	530.72778	-528.26276	-417.98309	525.97681	-442.89566	-473.0155	987.36182	-718.44873	-597.72925	1160.8351	-457.03009	-517.47174	877.4903	-13.237242	-555.4071	967.37317	-14.256654	-856.94684	687.09637	-268.37793	-882.99786	781.40192	-270.13864
189	0.935	-591.3078	100.38915	-517.27032	-617.4353	118.94881	-473.85522	-380.67981	530.18073	-530.16754	-415.35886	525.80188	-443.09372	-479.44519	983.20667	-721.53986	-590.59717	1164.0743	-455.22498	-501.08136	888.69031	-9.5473671	-534.92731	979.85815	-11.796669	-860.61469	704.84436	-240.2868	-883.58582	800.25092	-243.3947
190	0.94	-593.88086	100.37064	-514.31763	-618.7937	119.29278	-470.13412	-382.12418	529.55359	-531.92749	-413.86557	525.42743	-443.41556	-484.98297	982.3869	-721.12628	-583.78809	1166.9785	-453.82751	-484.73141	899.35217	-7.30514	-515.09424	991.62817	-9.899189	-863.75171	723.01483	-210.95535	-883.41162	818.95532	-215.27
191	0.945	-596.27844	100.09673	-511.82877	-620.45111	118.67004	-467.47162	-384.04935	528.70734	-533.44452	-413.11292	524.74542	-443.92984	-494.32538	979.42383	-717.67041	-577.31921	1169.5685	-452.87076	-469.45029	909.19641	-5.1228161	-495.82858	1002.6231	-9.3855429	-865.72388	741.85767	-180.68011	-882.69653	837.8587	-186.23306
192	0.95	-598.56531	99.556686	-509.51672	-622.19281	118.14456	-464.4664	-386.17419	527.88098	-534.67242	-413.17203	523.89392	-444.25076	-497.70135	977.91119	-720.49664	-571.26923	1171.8719	-451.95706	-454.51212	918.82422	-4.2989244	-477.28262	1012.6364	-9.7707739	-866.54858	760.75653	-149.02771	-881.13788	856.76251	-155.80495
193	0.955	-600.94507	98.747681	-507.57916	-623.62903	117.37954	-461.91177	-388.72009	526.84613	-535.47699	-413.89136	522.79242	-444.4104	-506.26172	976.03204	-715.59387	-565.45148	1173.8806	-451.51141	-440.54321	927.57764	-3.361665	-459.84613	1021.8631	-11.05943	-866.15363	778.33398	-114.97504	-878.61224	875.57831	-124.18303
194	0.96	-603.16748	97.422203	-505.74994	-624.5932	116.14642	-460.50305	-391.35083	525.73956	-536.04083	-415.29776	521.42065	-444.98431	-510.83774	973.98328	-715.26953	-560.0965	1175.4978	-451.18369	-427.27866	936.1153	-3.2309062	-443.61838	1030.4867	-13.087092	-864.50397	797.41107	-80.248055	-874.76215	894.40289	-91.384071
195	0.965	-605.27307	96.199432	-504.65244	-627.00616	114.63902	-458.45648	-394.29944	524.62854	-536.22498	-416.88705	520.62457	-443.90375	-515.11273	972.1889	-715.16547	-555.10431	1176.8163	-451.02542	-415.28409	944.33722	-3.5609512	-428.75974	1038.5371	-15.599613	-860.84198	816.2157	-44.327152	-869.34149	912.7984	-57.364216
196	0.97	-607.07996	94.444016	-503.61346	-628.40167	113.00574	-457.44669	-397.10947	523.51508	-536.30621	-419.20258	519.67737	-444.00836	-519.75232	970.87024	-714.17859	-550.55951	1177.8636	-450.71591	-403.68576	952.07782	-4.239666	-415.48639	1046.063	-18.536142	-855.63147	833.71222	-4.7424688	-862.19629	931.18091	-22.04265
197	0.975	-608.71906	92.669205	-503.12	-630.09125	110.81461	-457.0845	-400.05164	522.32336	-536.17603	-421.69867	518.69843	-443.80536	-522.71478	969.78223	-714.68842	-546.24286	1178.3607	-450.83801	-393.60239	959.4704	-5.134398	-403.73123	1052.83	-21.809622	-845.89642	851.81122	33.93248	-853.16119	949.00543	14.035729
198	0.98	-610.07477	90.724892	-502.91211	-631.5249	108.87469	-456.61551	-402.98508	521.05627	-535.87158	-424.69516	517.20734	-443.38779	-528.47626	968.4632	-711.91095	-542.07996	1178.3785	-451.73013	-384.86215	966.39423	-6.2963638	-393.61551	1059.1005	-25.300989	-834.97021	870.54486	73.546898	-841.96289	966.73914	51.023815
199	0.985	-610.92633	88.289139	-502.00964	-632.30829	107.22024	-455.90448	-405.80981	519.92584	-535.44452	-427.4845	516.08533	-442.77036	-532.64062	966.72174	-710.841	-539.12195	1179.2051	-450.58087	-377.41034	972.73621	-7.6139073	-385.24078	1064.7512	-28.826719	-820.43652	889.38275	118.87371	-828.42438	984.37463	88.624008
200	0.99	-612.08136	87.032143	-502.66986	-633.54895	105.41653	-455.90421	-408.37964	518.78589	-534.9248	-430.32443	514.60394	-442.70789	-534.73004	964.98743	-710.47504	-535.50482	1179.2128	-451.81107	-371.40619	978.617	-9.0669918	-378.50125	1069.7823	-32.390751	-803.40332	909.01147	159.64488	-812.23273	1002.1208	127.01663
201	0.995	-613.09485	85.45797	-502.61456	-634.38538	103.75608	-455.79517	-410.38065	517.86523	-534.35223	-432.71951	513.74805	-441.57349	-534.63812	965.22162	-712.04797	-533.20038	1179.4277	-450.83856	-367.03445	983.84985	-10.588997	-373.33749	1073.9935	-35.868851	-782.104	928.72766	202.56235	-792.82532	1019.8613	166.14284
202	1	-613.80359	84.244957	-502.57343	-635.32758	102.2028	-455.78595	-412.1142	516.9494	-533.67993	-434.84039	512.74164	-440.93039	-539.55371	963.73236	-708.87604	-530.92078	1179.7064	-450.11075	-364.25061	988.42444	-12.064982	-370.36319	1077.4436	-38.92477	-757.58472	947.60248	242.12079	-770.25195	1037.5973	205.33232
203	1.005	-614.41132	83.176346	-502.35391	-636.21002	100.96047	-455.62903	-413.42487	516.25122	-533.0481	-436.59363	511.84195	-440.21954	-543.32043	962.54645	-706.77344	-529.16034	1179.8418	-450.11682	-363.56525	992.11719	-13.576864	-369.00876	1079.9641	-41.614742	-729.14948	967.21777	280.55191	-744.17822	1055.49	243.72575
204	1.01	-615.01349	82.513222	-501.98489	-636.70282	100.15424	-455.48303	-414.39349	515.63623	-532.34088	-438.1875	510.8689	-439.98889	-544.26056	961.7486	-706.31567	-527.90442	1179.7957	-450.43628	-365.15948	994.86877	-15.327556	-369.31293	1081.6608	-43.747471	-696.32312	984.1756	319.62598	-714.29199	1073.0669	280.8226
205	1.015	-615.37439	82.024284	-501.58441	-637.05817	99.717316	-454.64233	-415.18744	515.15454	-531.6709	-439.15488	510.46442	-439.39282	-544.40167	961.1142	-706.88263	-526.88373	1180.1592	-450.79947	-369.00674	996.75562	-16.886919	-371.35046	1082.6714	-45.12896	-661.1814	1002.3178	357.0665	-680.90619	1090.515	315.73718
206	1.02	-615.74023	81.797958	-501.1608	-637.38232	99.554855	-453.8562	-415.64218	514.96899	-530.8587	-439.9939	510.34433	-438.66714	-544.86212	960.56689	-706.37128	-526.5191	1180.3158	-450.50079	-375.26404	998.13318	-17.521845	-375.77158	1083.3398	-45.497978	-619.8844	1019.482	385.57401	-644.01581	1107.1298	347.24359
207	1.025	-615.91211	81.760155	-500.7099	-637.29047	99.5401	-452.98474	-415.97189	515.04419	-529.9704	-440.573	510.46878	-437.90146	-548.02661	960.35901	-702.48346	-526.62769	1180.8654	-448.91354	-382.28897	998.89514	-16.946146	-381.72208	1083.7894	-45.076397	-576.50958	1034.2556	410.50555	-603.41675	1122.4506	374.7294
208	1.03	-616.06079	81.835007	-500.25995	-637.34991	99.381378	-452.77798	-416.29037	515.20618	-528.97223	-440.75974	510.91446	-436.62601	-548.70233	960.12823	-700.52649	-527.27063	1181.103	-448.75098	-390.45651	999.73779	-15.095057	-388.74542	1084.6272	-43.961071	-530.36212	1046.7554	431.1774	-560.3717	1134.7959	396.49518
209	1.035	-615.99847	82.094658	-500.03983	-637.17432	99.409592	-452.41907	-416.56763	515.67957	-527.71643	-441.13715	511.35266	-435.55438	-548.84308	960.57428	-698.07013	-528.24377	1181.66	-447.42218	-398.64645	1001.549	-12.366796	-396.2175	1086.1599	-42.385864	-481.88922	1056.6692	443.39154	-516.24506	1143.2866	411.77411
